# File created by Blade
# Date/Time:  Thu Sep 25 18:58:07 2014
# Frame Rate: 120.000 fps
#------------------------------------------------------
:FULLY-SPECIFIED
:DEGREES
684
root 0.610385 32.823234 -0.071919 5.843172 41.920330 1.369057
Spine -9.460021 30.317879 -1.618837
Head 0.746684 23.959127 5.229651
LeftShoulder -20.844251 20.299650 22.666147
LeftArm 12.497734 -28.160828 -35.066006
LeftForeArm 16.987903 -0.000000 14.475521
LeftHand -30.390828 0.000000 -4.680654
LeftHandThumb1 -26.253704 0.000000 33.147579
RightShoulder -11.993803 20.610053 -34.652998
RightArm -11.355252 6.636413 33.222964
RightForeArm -30.015261 -0.000000 12.020416
RightHand -12.268292 -0.000000 12.592361
RightHandThumb1 -24.326973 -0.000000 -32.862282
LeftUpLeg -13.613337 -16.384957 7.077592
LeftLeg 4.229515 -0.000000 -0.000000
LeftFoot 2.376659 -17.169658 -23.912252
LeftToeBase 3.338011 -0.000000 -0.000000
RightUpLeg 0.583387 -27.359189 -3.548320
RightLeg 9.220182 -0.000000 -0.000000
RightFoot -10.503050 -21.239119 -0.226551
RightToeBase -6.306923 -0.000000 0.000000
685
root 0.623815 32.826554 -0.061634 5.845197 41.338685 1.383285
Spine -9.451508 30.104273 -1.599776
Head 0.605265 23.565297 5.189095
LeftShoulder -20.821658 20.291827 22.689815
LeftArm 12.602651 -28.235474 -35.117025
LeftForeArm 17.037831 -0.000000 14.516889
LeftHand -30.370809 -0.000000 -4.893025
LeftHandThumb1 -26.253704 0.000000 33.147579
RightShoulder -12.036257 20.539141 -34.670944
RightArm -11.382475 6.498922 33.262618
RightForeArm -29.829482 -0.000000 12.078523
RightHand -12.269842 0.000000 12.702349
RightHandThumb1 -24.326973 -0.000000 -32.862282
LeftUpLeg -13.462057 -16.088847 6.998739
LeftLeg 4.243366 -0.000000 -0.000000
LeftFoot 2.140042 -16.912213 -23.748003
LeftToeBase 3.130752 -0.000000 -0.000000
RightUpLeg 0.534538 -27.086129 -3.619982
RightLeg 9.204378 -0.000000 -0.000000
RightFoot -10.434465 -21.001320 -0.356448
RightToeBase -6.375948 -0.000000 0.000000
686
root 0.645247 32.828134 -0.053605 5.847453 40.733021 1.476073
Spine -9.359113 29.921628 -1.604741
Head 0.496018 23.229143 5.163599
LeftShoulder -20.747806 20.241160 22.725253
LeftArm 12.615470 -28.194962 -35.094323
LeftForeArm 16.919611 0.000000 14.532742
LeftHand -30.387465 0.000000 -4.930275
LeftHandThumb1 -26.253704 0.000000 33.147579
RightShoulder -12.108988 20.507420 -34.741815
RightArm -11.415227 6.669063 33.291956
RightForeArm -29.905772 -0.000000 12.107433
RightHand -12.211385 0.000000 12.600600
RightHandThumb1 -24.326973 -0.000000 -32.862282
LeftUpLeg -13.240140 -15.813241 6.828683
LeftLeg 4.239715 -0.000000 -0.000000
LeftFoot 1.878116 -16.601620 -23.494570
LeftToeBase 2.859923 -0.000000 -0.000000
RightUpLeg 0.557487 -26.805584 -3.806657
RightLeg 9.181048 -0.000000 -0.000000
RightFoot -10.414047 -20.719518 -0.466797
RightToeBase -6.417004 -0.000000 0.000000
687
root 0.654089 32.833431 -0.046222 5.888876 40.190196 1.460687
Spine -9.411294 29.658663 -1.573155
Head 0.420207 22.931033 5.114590
LeftShoulder -20.686051 20.136625 22.792686
LeftArm 12.605127 -28.236251 -35.141411
LeftForeArm 17.036072 0.000000 14.554725
LeftHand -30.307278 -0.000000 -4.975259
LeftHandThumb1 -26.253704 0.000000 33.147579
RightShoulder -12.198678 20.485218 -34.791351
RightArm -11.371346 6.768601 33.321961
RightForeArm -29.935547 -0.000000 12.082845
RightHand -12.369159 -0.000000 12.621817
RightHandThumb1 -24.326973 -0.000000 -32.862282
LeftUpLeg -13.179429 -15.492573 6.786278
LeftLeg 4.289511 -0.000000 -0.000000
LeftFoot 1.688890 -16.342247 -23.386778
LeftToeBase 2.613825 -0.000000 -0.000000
RightUpLeg 0.457473 -26.492118 -3.812604
RightLeg 9.113424 -0.000000 -0.000000
RightFoot -10.317977 -20.552477 -0.523752
RightToeBase -6.453479 -0.000000 0.000000
688
root 0.665710 32.837153 -0.036249 5.890232 39.535456 1.478564
Spine -9.387508 29.510563 -1.564774
Head 0.340928 22.654285 5.116767
LeftShoulder -20.651760 20.166786 22.779680
LeftArm 12.686996 -28.244510 -35.128536
LeftForeArm 16.969370 -0.000000 14.568957
LeftHand -30.435112 -0.000000 -4.825979
LeftHandThumb1 -26.253704 0.000000 33.147579
RightShoulder -12.255049 20.513967 -34.793926
RightArm -11.397173 6.748914 33.314994
RightForeArm -29.908921 0.000000 12.143378
RightHand -12.233979 -0.000000 12.671597
RightHandThumb1 -24.326973 -0.000000 -32.862282
LeftUpLeg -13.004270 -15.095861 6.694973
LeftLeg 4.265787 -0.000000 -0.000000
LeftFoot 1.503239 -16.123787 -23.110906
LeftToeBase 2.563902 -0.000000 -0.000000
RightUpLeg 0.388474 -26.099524 -3.881445
RightLeg 9.102735 -0.000000 -0.000000
RightFoot -10.263063 -20.374937 -0.618416
RightToeBase -6.497148 -0.000000 0.000000
